<svg width="28" height="27" viewBox="0 0 28 27" fill="none" xmlns="http://www.w3.org/2000/svg">
<path d="M4.46875 8.31054C0.228363 11.2045 -0.964246 17.1302 1.68599 21.54C4.33623 25.9498 10.1668 27.1901 14.4071 24.4339C18.6475 21.54 19.8401 15.6143 17.1899 11.2045C14.5397 6.79466 8.70913 5.4166 4.46875 8.31054ZM13.6121 23.1937C10.0343 25.5364 5.26382 24.5717 3.01111 20.851C0.75841 17.1302 1.68599 12.1691 5.26382 9.82641C8.84164 7.4837 13.6121 8.44835 15.8648 12.1691C18.25 15.7521 17.1899 20.7132 13.6121 23.1937Z" fill="white" stroke="white" stroke-width="0.5" stroke-miterlimit="10"/>
<path d="M13.082 2.52259C8.84164 5.41654 7.64904 11.3422 10.2993 15.7521C12.9495 20.1619 18.78 21.4021 23.0204 18.646C27.2608 15.8899 28.4534 9.82636 25.8032 5.41654C23.0204 0.868913 17.3224 -0.371349 13.082 2.52259ZM22.2254 17.2679C18.6475 19.6106 13.8771 18.646 11.6244 14.9252C9.37169 11.2044 10.2993 6.24338 13.8771 3.90066C17.4549 1.55795 22.2254 2.5226 24.4781 6.24338C26.8633 9.96416 25.8032 14.9252 22.2254 17.2679Z" fill="white" stroke="white" stroke-width="0.5" stroke-miterlimit="10"/>
</svg>
