<svg width="216" height="20" viewBox="0 0 216 20" fill="none" xmlns="http://www.w3.org/2000/svg">
<path d="M0.667969 19.4339L8.61869 1.24341H11.1364L19.0871 19.4339H16.4369L9.28125 2.75928H10.3413L3.31821 19.4339H0.667969ZM3.98077 14.8863L4.64333 12.8192H14.4492L15.1118 14.8863H3.98077Z" fill="white"/>
<path d="M26.7711 19.5718C25.4459 19.5718 24.2533 19.2962 23.1932 18.6072C22.1331 18.0559 21.3381 17.2291 20.6755 16.1266C20.0129 15.0242 19.7479 13.9217 19.7479 12.5437C19.7479 11.1656 20.0129 9.92532 20.6755 8.96067C21.3381 7.85822 22.1331 7.03138 23.1932 6.48015C24.2533 5.92892 25.4459 5.5155 26.7711 5.5155C27.9637 5.5155 29.0238 5.79112 29.9513 6.20454C30.8789 6.75576 31.674 7.4448 32.0715 8.40945L30.2164 9.64971C29.8188 8.96067 29.2888 8.40945 28.6262 8.13383C27.9637 7.85822 27.3011 7.72041 26.6385 7.72041C25.711 7.72041 25.0484 7.85822 24.2533 8.27164C23.5908 8.68506 23.0607 9.23629 22.6632 9.92532C22.2656 10.6144 22.0006 11.4412 22.0006 12.5437C22.0006 13.5083 22.2656 14.3351 22.6632 15.162C23.0607 15.851 23.5908 16.4022 24.2533 16.8157C24.9159 17.2291 25.711 17.3669 26.6385 17.3669C27.3011 17.3669 27.9637 17.2291 28.6262 16.9535C29.2888 16.6779 29.8188 16.1266 30.2164 15.4376L32.0715 16.6779C31.5415 17.6425 30.8789 18.3315 29.9513 18.8828C29.0238 19.2962 27.9637 19.5718 26.7711 19.5718Z" fill="white"/>
<path d="M38.83 19.5718C37.9024 19.5718 36.9748 19.434 36.1797 19.0206C35.3846 18.6072 34.8546 18.1937 34.4571 17.6425C34.0595 17.0913 33.7945 16.2644 33.7945 15.5754C33.7945 14.8864 33.927 14.1973 34.3245 13.5083C34.7221 12.9571 35.2521 12.4058 36.0472 11.9924C36.8423 11.579 37.9024 11.4412 39.2275 11.4412H43.4679V13.2327H39.36C38.1674 13.2327 37.3723 13.5083 36.9748 13.9217C36.5772 14.3351 36.3122 14.8864 36.3122 15.4376C36.3122 16.1266 36.5772 16.6779 37.1073 17.0913C37.6373 17.5047 38.2999 17.6425 39.2275 17.6425C40.1551 17.6425 40.9501 17.3669 41.6127 16.9535C42.2753 16.54 42.8053 15.9888 43.0703 15.162L43.6004 16.8157C43.3354 17.6425 42.6728 18.3315 41.8777 18.745C41.0827 19.2962 40.0226 19.5718 38.83 19.5718ZM43.2028 19.434V16.54L43.0703 15.9888V11.0278C43.0703 9.92532 42.8053 9.09848 42.1428 8.54725C41.4802 7.99603 40.6851 7.72041 39.4925 7.72041C38.6974 7.72041 37.9024 7.85822 37.2398 8.13383C36.4447 8.40945 35.9147 8.82287 35.3846 9.23629L34.3245 7.30699C34.9871 6.75577 35.7822 6.34235 36.8423 5.92892C37.9024 5.5155 38.8299 5.5155 39.89 5.5155C41.7452 5.5155 43.0703 5.92892 44.1304 6.89357C45.058 7.85822 45.5881 9.23629 45.5881 11.1656V19.434H43.2028Z" fill="white"/>
<path d="M55.1298 19.5718C53.8047 19.5718 52.7446 19.2961 51.6845 18.7449C50.6244 18.1937 49.8293 17.3668 49.2993 16.2644C48.7692 15.1619 48.3717 13.9217 48.3717 12.5436C48.3717 11.1655 48.6367 9.92528 49.2993 8.82282C49.8293 7.72037 50.6244 6.89352 51.6845 6.3423C52.7446 5.79107 53.8047 5.51546 55.1298 5.51546C56.1899 5.51546 57.25 5.79107 58.1776 6.3423C59.1052 6.89352 59.7677 7.58256 60.2978 8.68501C60.8278 9.78747 61.0929 11.0277 61.0929 12.5436C61.0929 14.0595 60.8278 15.4375 60.2978 16.4022C59.7677 17.5047 59.1052 18.1937 58.1776 18.7449C57.25 19.2961 56.3224 19.5718 55.1298 19.5718ZM55.2623 17.3668C56.0574 17.3668 56.8525 17.229 57.515 16.8156C58.1776 16.4022 58.7076 15.851 59.1052 15.1619C59.5027 14.4729 59.6352 13.5083 59.6352 12.5436C59.6352 11.579 59.5027 10.7521 59.1052 9.92527C58.7076 9.23624 58.1776 8.68501 57.515 8.27159C56.8525 7.85817 56.0574 7.72037 55.2623 7.72037C54.4673 7.72037 53.6722 7.85817 53.0096 8.27159C52.3471 8.68501 51.817 9.23624 51.4195 9.92527C51.0219 10.6143 50.7569 11.4411 50.7569 12.5436C50.7569 13.5083 51.0219 14.3351 51.4195 15.1619C51.817 15.851 52.3471 16.4022 53.0096 16.8156C53.6722 17.229 54.4673 17.3668 55.2623 17.3668ZM59.7677 19.4339V15.7132L59.9002 12.5436L59.6352 9.37405V0.140991H62.0204V19.4339H59.7677Z" fill="white"/>
<path d="M72.3579 19.5718C70.9002 19.5718 69.7076 19.2962 68.6475 18.6072C67.5874 18.0559 66.7924 17.2291 66.1298 16.1266C65.4672 15.0242 65.2022 13.9217 65.2022 12.5437C65.2022 11.1656 65.4672 9.92532 66.1298 8.96067C66.7924 7.99603 67.4549 7.03138 68.515 6.48015C69.5751 5.92892 70.6352 5.5155 71.9603 5.5155C73.2855 5.5155 74.3455 5.79112 75.4056 6.34234C76.3332 6.89357 77.1283 7.72041 77.6583 8.82287C78.1884 9.92532 78.4534 11.1656 78.4534 12.5437C78.4534 12.6815 78.4534 12.8193 78.4534 12.9571C78.4534 13.0949 78.4534 13.2327 78.4534 13.3705H67.1899V11.579H77.2608L76.3332 12.268C76.3332 11.4412 76.2007 10.6144 75.8032 9.92532C75.4056 9.23629 74.8756 8.68506 74.3455 8.27164C73.683 7.85822 73.0204 7.72041 72.0928 7.72041C71.2978 7.72041 70.5027 7.85822 69.8401 8.27164C69.1776 8.68506 68.6475 9.23629 68.25 9.92532C67.7199 10.6144 67.5874 11.3034 67.5874 12.268V12.6815C67.5874 13.6461 67.8525 14.4729 68.25 15.162C68.6475 15.851 69.1776 16.4022 69.9727 16.8157C70.7677 17.2291 71.5628 17.3669 72.4904 17.3669C73.2854 17.3669 73.948 17.2291 74.6106 16.9535C75.2731 16.6779 75.8032 16.2644 76.3332 15.7132L77.6583 17.3669C76.9958 18.0559 76.3332 18.6072 75.4056 19.0206C74.4781 19.434 73.418 19.5718 72.3579 19.5718Z" fill="white"/>
<path d="M98.0658 5.5155C99.1259 5.5155 100.053 5.79112 100.849 6.20454C101.644 6.61796 102.306 7.30699 102.704 8.13383C103.101 8.96068 103.366 10.2009 103.366 11.4412V19.434H100.981V11.8546C100.981 10.4765 100.716 9.5119 100.053 8.82287C99.3909 8.13383 98.5958 7.85822 97.5357 7.85822C96.7407 7.85822 96.0781 7.99603 95.4155 8.40945C94.753 8.82287 94.3554 9.23629 94.0904 9.92532C93.8254 10.6144 93.5604 11.4412 93.5604 12.4058V19.434H91.1752V11.8546C91.1752 10.4765 90.9101 9.5119 90.2476 8.82287C89.7175 8.13383 88.7899 7.85822 87.7298 7.85822C86.9348 7.85822 86.2722 7.99603 85.6096 8.40945C84.9471 8.82287 84.5496 9.23629 84.152 9.92532C83.7545 10.6144 83.622 11.4412 83.622 12.4058V19.434H81.2368V5.65331H83.4895V9.3741L83.0919 8.40945C83.4895 7.4448 84.152 6.75576 85.0796 6.34234C86.0072 5.79112 86.9348 5.65331 88.1274 5.65331C89.4525 5.65331 90.5126 5.92892 91.4402 6.61796C92.3678 7.30699 92.8978 8.27164 93.2953 9.5119L92.3678 9.09848C92.7653 7.99603 93.4279 7.16919 94.488 6.61796C95.5481 5.79112 96.7407 5.5155 98.0658 5.5155Z" fill="white"/>
<path d="M108.8 3.17274C108.402 3.17274 108.004 3.03493 107.739 2.75932C107.474 2.48371 107.342 2.07029 107.342 1.65687C107.342 1.24345 107.474 0.830027 107.739 0.554413C108.004 0.2788 108.402 0.140991 108.8 0.140991C109.197 0.140991 109.595 0.2788 109.86 0.554413C110.125 0.830027 110.257 1.24345 110.257 1.65687C110.257 2.07029 110.125 2.48371 109.86 2.75932C109.595 3.03493 109.197 3.17274 108.8 3.17274ZM107.607 19.4339V5.65326H109.992V19.4339H107.607Z" fill="white"/>
<path d="M118.207 19.5718C117.279 19.5718 116.352 19.434 115.556 19.0206C114.761 18.6072 114.231 18.1937 113.834 17.6425C113.436 17.0913 113.171 16.2644 113.171 15.5754C113.171 14.8864 113.304 14.1973 113.701 13.5083C114.099 12.9571 114.629 12.4058 115.424 11.9924C116.219 11.579 117.279 11.4412 118.604 11.4412H122.845V13.2327H118.737C117.544 13.2327 116.749 13.5083 116.352 13.9217C115.954 14.3351 115.689 14.8864 115.689 15.4376C115.689 16.1266 115.954 16.6779 116.484 17.0913C117.014 17.5047 117.677 17.6425 118.604 17.6425C119.532 17.6425 120.327 17.3669 120.989 16.9535C121.652 16.54 122.182 15.9888 122.447 15.162L122.977 16.8157C122.712 17.6425 122.05 18.3315 121.255 18.745C120.459 19.2962 119.399 19.5718 118.207 19.5718ZM122.58 19.434V16.54L122.447 15.9888V11.0278C122.447 9.92532 122.182 9.09848 121.52 8.54725C120.857 7.99603 120.062 7.72041 118.869 7.72041C118.074 7.72041 117.279 7.85822 116.617 8.13383C115.822 8.40945 115.291 8.82287 114.761 9.23629L113.701 7.30699C114.364 6.75577 115.159 6.34235 116.219 5.92892C117.279 5.5155 118.207 5.5155 119.267 5.5155C121.122 5.5155 122.447 5.92892 123.507 6.89357C124.435 7.85822 124.965 9.23629 124.965 11.1656V19.434H122.58Z" fill="white"/>
<path d="M143.117 19.5717C140.865 19.5717 139.009 18.8827 137.684 17.5046C136.359 16.1265 135.697 14.1972 135.697 11.4411V1.10559H138.214V11.3033C138.214 13.3704 138.612 14.7485 139.539 15.7131C140.334 16.6778 141.66 17.0912 143.117 17.0912C144.707 17.0912 145.9 16.6778 146.828 15.7131C147.623 14.7485 148.153 13.2326 148.153 11.3033V1.10559H150.538V11.4411C150.538 14.0594 149.875 16.1265 148.55 17.5046C147.225 18.8827 145.37 19.5717 143.117 19.5717Z" fill="white"/>
<path d="M162.069 5.5155C163.129 5.5155 164.056 5.79112 164.984 6.20454C165.912 6.61796 166.442 7.30699 166.972 8.13383C167.502 8.96068 167.634 10.2009 167.634 11.4412V19.434H165.249V11.8546C165.249 10.4765 164.984 9.5119 164.321 8.82287C163.659 8.13383 162.864 7.85822 161.671 7.85822C160.876 7.85822 160.081 7.99603 159.419 8.40945C158.756 8.82287 158.358 9.23629 157.961 9.92532C157.563 10.6144 157.431 11.4412 157.431 12.4058V19.434H155.046V5.65331H157.298V9.3741L156.901 8.40945C157.298 7.4448 157.961 6.75576 158.888 6.34234C159.816 5.79112 160.876 5.5155 162.069 5.5155Z" fill="white"/>
<path d="M172.934 3.17274C172.536 3.17274 172.139 3.03493 171.874 2.75932C171.609 2.48371 171.476 2.07029 171.476 1.65687C171.476 1.24345 171.609 0.830027 171.874 0.554413C172.139 0.2788 172.536 0.140991 172.934 0.140991C173.331 0.140991 173.729 0.2788 173.994 0.554413C174.259 0.830027 174.392 1.24345 174.392 1.65687C174.392 2.07029 174.259 2.48371 173.994 2.75932C173.729 3.03493 173.331 3.17274 172.934 3.17274ZM171.741 19.4339V5.65326H174.126V19.4339H171.741Z" fill="white"/>
<path d="M176.644 7.72031V5.65321H185.125V7.72031H176.644ZM183.005 19.5717C181.68 19.5717 180.62 19.1583 179.957 18.4692C179.162 17.7802 178.897 16.6778 178.897 15.2997V2.62146H181.282V15.1619C181.282 15.8509 181.415 16.5399 181.812 16.8156C182.21 17.0912 182.74 17.3668 183.402 17.3668C184.197 17.3668 184.727 17.0912 185.258 16.6778L186.053 18.4692C185.655 18.7449 185.257 19.0205 184.727 19.1583C184.065 19.5717 183.535 19.5717 183.005 19.5717Z" fill="white"/>
<path d="M194.532 19.5718C193.074 19.5718 191.882 19.2962 190.822 18.6072C189.761 18.0559 188.966 17.2291 188.304 16.1266C187.641 15.0242 187.376 13.9217 187.376 12.5437C187.376 11.1656 187.641 9.92532 188.304 8.96067C188.966 7.99603 189.629 7.03138 190.689 6.48015C191.749 5.92892 192.809 5.5155 194.134 5.5155C195.459 5.5155 196.52 5.79112 197.58 6.34234C198.507 6.89357 199.302 7.72041 199.832 8.82287C200.362 9.92532 200.627 11.1656 200.627 12.5437C200.627 12.6815 200.627 12.8193 200.627 12.9571C200.627 13.0949 200.627 13.2327 200.627 13.3705H189.364V11.579H199.435L198.507 12.268C198.507 11.4412 198.375 10.6144 197.977 9.92532C197.58 9.23629 197.05 8.68506 196.52 8.27164C195.857 7.85822 195.194 7.72041 194.267 7.72041C193.472 7.72041 192.677 7.85822 192.014 8.27164C191.352 8.68506 190.822 9.23629 190.424 9.92532C190.026 10.6144 189.894 11.4412 189.894 12.268V12.6815C189.894 13.6461 190.159 14.4729 190.557 15.162C190.954 15.851 191.484 16.4022 192.279 16.8157C193.074 17.2291 193.869 17.3669 194.797 17.3669C195.592 17.3669 196.255 17.2291 196.917 16.9535C197.58 16.6779 198.11 16.2644 198.64 15.7132L199.965 17.3669C199.302 18.0559 198.64 18.6072 197.712 19.0206C196.52 19.434 195.592 19.5718 194.532 19.5718Z" fill="white"/>
<path d="M209.108 19.5718C207.782 19.5718 206.722 19.2961 205.662 18.7449C204.602 18.1937 203.807 17.3668 203.277 16.2644C202.747 15.1619 202.349 13.9217 202.349 12.5436C202.349 11.1655 202.615 9.92528 203.277 8.82282C203.807 7.72037 204.602 6.89352 205.662 6.3423C206.722 5.79107 207.782 5.51546 209.108 5.51546C210.168 5.51546 211.228 5.79107 212.155 6.3423C213.083 6.89352 213.746 7.58256 214.276 8.68501C214.806 9.78747 215.071 11.0277 215.071 12.5436C215.071 14.0595 214.806 15.4375 214.276 16.4022C213.746 17.5047 213.083 18.1937 212.155 18.7449C211.228 19.2961 210.3 19.5718 209.108 19.5718ZM209.24 17.3668C210.035 17.3668 210.83 17.229 211.493 16.8156C212.155 16.4022 212.685 15.851 213.083 15.1619C213.481 14.4729 213.613 13.5083 213.613 12.5436C213.613 11.579 213.481 10.7521 213.083 9.92527C212.685 9.23624 212.155 8.68501 211.493 8.27159C210.83 7.85817 210.035 7.72037 209.24 7.72037C208.445 7.72037 207.65 7.85817 206.987 8.27159C206.325 8.68501 205.795 9.23624 205.397 9.92527C205 10.6143 204.735 11.4411 204.735 12.5436C204.735 13.5083 205 14.3351 205.397 15.1619C205.795 15.851 206.325 16.4022 206.987 16.8156C207.65 17.229 208.445 17.3668 209.24 17.3668ZM213.878 19.4339V15.7132L214.011 12.5436L213.746 9.37405V0.140991H216.131V19.4339H213.878Z" fill="white"/>
</svg>
