<svg width="30" height="30" viewBox="0 0 30 30" fill="none" xmlns="http://www.w3.org/2000/svg">
<ellipse cx="14.9363" cy="14.9289" rx="14.535" ry="14.9289" fill="white"/>
<path d="M14.6697 12.8881C13.3875 12.8881 12.3411 13.9629 12.3411 15.2798C12.3411 16.5968 13.3875 17.6716 14.6697 17.6716C15.9519 17.6716 16.9983 16.5968 16.9983 15.2798C16.9983 13.9629 15.9519 12.8881 14.6697 12.8881ZM21.6537 15.2798C21.6537 14.2894 21.6625 13.308 21.6083 12.3193C21.5542 11.171 21.2991 10.1519 20.4816 9.31215C19.6623 8.47064 18.6718 8.21047 17.5538 8.15485C16.5895 8.09923 15.634 8.1082 14.6715 8.1082C13.7072 8.1082 12.7516 8.09923 11.7891 8.15485C10.6711 8.21047 9.67889 8.47243 8.86136 9.31215C8.04207 10.1537 7.78877 11.171 7.73462 12.3193C7.68047 13.3098 7.6892 14.2912 7.6892 15.2798C7.6892 16.2685 7.68047 17.2517 7.73462 18.2404C7.78877 19.3887 8.04382 20.4078 8.86136 21.2475C9.68064 22.0891 10.6711 22.3492 11.7891 22.4048C12.7534 22.4605 13.7089 22.4515 14.6715 22.4515C15.6357 22.4515 16.5913 22.4605 17.5538 22.4048C18.6718 22.3492 19.664 22.0873 20.4816 21.2475C21.3009 20.406 21.5542 19.3887 21.6083 18.2404C21.6642 17.2517 21.6537 16.2703 21.6537 15.2798ZM14.6697 18.9599C12.687 18.9599 11.0869 17.3163 11.0869 15.2798C11.0869 13.2434 12.687 11.5998 14.6697 11.5998C16.6524 11.5998 18.2526 13.2434 18.2526 15.2798C18.2526 17.3163 16.6524 18.9599 14.6697 18.9599ZM18.3993 12.3086C17.9364 12.3086 17.5625 11.9246 17.5625 11.4491C17.5625 10.9736 17.9364 10.5897 18.3993 10.5897C18.8622 10.5897 19.2361 10.9736 19.2361 11.4491C19.2362 11.562 19.2146 11.6738 19.1726 11.7782C19.1306 11.8825 19.069 11.9773 18.9913 12.0571C18.9136 12.137 18.8213 12.2003 18.7197 12.2434C18.6181 12.2866 18.5092 12.3087 18.3993 12.3086Z" fill="black"/>
</svg>
