<svg width="30" height="30" viewBox="0 0 30 30" fill="none" xmlns="http://www.w3.org/2000/svg">
<path d="M14.752 0.0639648C6.87109 0.0639648 0.482544 6.76527 0.482544 15.032C0.482544 23.2987 6.87109 30 14.752 30C22.6329 30 29.0214 23.2987 29.0214 15.032C29.0214 6.76527 22.6329 0.0639648 14.752 0.0639648ZM11.2589 21.2359H8.36938V11.4818H11.2589V21.2359ZM9.79632 10.2843C8.88367 10.2843 8.29357 9.60608 8.29357 8.76725C8.29357 7.91126 8.90151 7.25329 9.83348 7.25329C10.7655 7.25329 11.3362 7.91126 11.3541 8.76725C11.3541 9.60608 10.7655 10.2843 9.79632 10.2843ZM21.8124 21.2359H18.9228V15.8303C18.9228 14.572 18.5036 13.7176 17.4587 13.7176C16.6605 13.7176 16.1863 14.2961 15.9768 14.8527C15.8995 15.0507 15.8802 15.3314 15.8802 15.6104V21.2344H12.9891V14.5923C12.9891 13.3746 12.9519 12.3565 12.9133 11.4802H15.4238L15.5561 12.8351H15.6141C15.9946 12.199 16.9266 11.2604 18.4858 11.2604C20.3869 11.2604 21.8124 12.5966 21.8124 15.4686V21.2359Z" fill="white"/>
</svg>
