<svg width="30" height="30" viewBox="0 0 30 30" fill="none" xmlns="http://www.w3.org/2000/svg">
<ellipse cx="15.0588" cy="14.9289" rx="14.535" ry="14.9289" fill="white"/>
<path d="M11.8912 19.0332L11.8831 19.5332C11.6466 19.5293 11.4119 19.5058 11.1818 19.4632C11.4275 19.3341 11.6645 19.1906 11.8912 19.0332ZM11.8912 19.0332L11.606 18.6225C11.4444 18.7347 11.277 18.8394 11.1044 18.9363C11.3599 18.996 11.6239 19.0289 11.8912 19.0332ZM12.0628 21.0639C11.0924 21.0649 10.1346 20.926 9.22579 20.6575C10.2924 20.4619 11.3035 20.0499 12.1763 19.4439L13.4517 18.5585L11.8993 18.5333C11.2986 18.5235 10.7216 18.3477 10.2492 18.0372C10.0322 17.8946 9.84321 17.7276 9.68561 17.5428C9.92914 17.5276 10.1713 17.4916 10.4087 17.4348L10.3802 16.4563C9.72968 16.3401 9.15579 16.0301 8.75041 15.5918C8.52657 15.3498 8.36165 15.0773 8.25906 14.79C8.54002 14.8573 8.82921 14.8956 9.12097 14.9038L11.0567 14.9583L9.38931 13.9735C9.00248 13.745 8.69211 13.4396 8.48037 13.0891C8.26896 12.7392 8.16104 12.3532 8.16129 11.9649V11.9646C8.16129 11.7514 8.1933 11.5438 8.25399 11.3451C9.03337 12.0695 9.94571 12.6699 10.9515 13.1209C12.1869 13.6748 13.5378 13.9918 14.9168 14.053L15.5968 14.0832L15.4222 13.4253C15.2876 12.918 15.3451 12.3849 15.5906 11.9044C15.837 11.4221 16.2632 11.0129 16.8153 10.7515C17.3678 10.4899 18.0074 10.3952 18.6325 10.4863C19.2576 10.5774 19.822 10.8473 20.2417 11.2436L20.4238 11.4155L20.6705 11.3727C20.8213 11.3465 20.971 11.316 21.1194 11.2812C21.0799 11.3046 21.0395 11.3272 20.9983 11.349L21.2849 12.2881C21.3386 12.2825 21.3921 12.2762 21.4455 12.2695C21.3691 12.3234 21.2912 12.3757 21.2118 12.4265L20.967 12.583L20.9818 12.8731C20.9878 12.9914 20.9911 13.1099 20.9911 13.2264C20.9911 16.8243 17.8811 21.0639 12.0633 21.0639H12.0628ZM8.79576 16.9989C8.86385 17.1862 8.9527 17.366 9.06039 17.5358L9.36059 17.0506C9.39155 17.1135 9.4256 17.1753 9.46263 17.2359C9.30492 17.1759 9.15179 17.1065 9.00431 17.028C8.93457 17.0202 8.86502 17.0105 8.79576 16.9989Z" fill="black" stroke="black"/>
</svg>
