<svg width="30" height="30" viewBox="0 0 30 30" fill="none" xmlns="http://www.w3.org/2000/svg">
<path d="M17.4047 14.6692L14.0041 13.0395C13.7074 12.898 13.4636 13.0566 13.4636 13.394V16.4638C13.4636 16.8013 13.7074 16.9599 14.0041 16.8184L17.4032 15.1886C17.7015 15.0456 17.7014 14.8123 17.4047 14.6692ZM14.9777 0C6.95012 0 0.442688 6.68381 0.442688 14.9289C0.442688 23.174 6.95012 29.8579 14.9777 29.8579C23.0052 29.8579 29.5126 23.174 29.5126 14.9289C29.5126 6.68381 23.0052 0 14.9777 0ZM14.9777 20.9938C7.53757 20.9938 7.40736 20.3049 7.40736 14.9289C7.40736 9.55296 7.53757 8.86405 14.9777 8.86405C22.4177 8.86405 22.548 9.55296 22.548 14.9289C22.548 20.3049 22.4177 20.9938 14.9777 20.9938Z" fill="white"/>
</svg>
