<svg width="45" height="45" viewBox="0 0 45 45" fill="none" xmlns="http://www.w3.org/2000/svg">
<path d="M43.7712 -0.00012207H0.8933C0.400399 -0.00012207 1.14441e-05 0.411117 1.14441e-05 0.917379V32.1124C1.14441e-05 32.6199 0.400399 33.0299 0.8933 33.0299H21.4389V42.2049H13.3993C12.9064 42.2049 12.5061 42.6149 12.5061 43.1224C12.5061 43.6299 12.9064 44.0399 13.3993 44.0399H31.2651C31.7592 44.0399 32.1584 43.6299 32.1584 43.1224C32.1584 42.6149 31.7592 42.2049 31.2651 42.2049H23.2255V33.0299H43.7712C44.2653 33.0299 44.6645 32.6199 44.6645 32.1124V0.917379C44.6645 0.411117 44.2653 -0.00012207 43.7712 -0.00012207ZM16.0792 17.4324V19.2674C16.0792 19.7728 16.4804 20.1849 16.9725 20.1849C17.4654 20.1849 17.8658 20.5961 17.8658 21.1024C17.8658 21.6087 17.4654 22.0199 16.9725 22.0199C15.495 22.0199 14.2926 20.785 14.2926 19.2674V17.4324C14.2926 16.927 13.8915 16.5149 13.3993 16.5149C12.9064 16.5149 12.5061 16.1037 12.5061 15.5974C12.5061 15.0911 12.9064 14.6799 13.3993 14.6799C13.8915 14.6799 14.2926 14.2678 14.2926 13.7624V11.9274C14.2926 10.4098 15.495 9.17489 16.9725 9.17489C17.4654 9.17489 17.8658 9.58613 17.8658 10.0924C17.8658 10.5986 17.4654 11.0099 16.9725 11.0099C16.4804 11.0099 16.0792 11.4219 16.0792 11.9274V13.7624C16.0792 14.4669 15.82 15.1103 15.3949 15.5974C15.82 16.0844 16.0792 16.7279 16.0792 17.4324ZM23.2255 21.1024C23.2255 21.6087 22.8251 22.0199 22.3322 22.0199C21.8393 22.0199 21.4389 21.6087 21.4389 21.1024V15.5974C21.4389 15.0911 21.8393 14.6799 22.3322 14.6799C22.8251 14.6799 23.2255 15.0911 23.2255 15.5974V21.1024ZM23.2255 11.9274C23.2255 12.4337 22.8251 12.8449 22.3322 12.8449C21.8393 12.8449 21.4389 12.4337 21.4389 11.9274V10.0924C21.4389 9.58613 21.8393 9.17489 22.3322 9.17489C22.8251 9.17489 23.2255 9.58613 23.2255 10.0924V11.9274ZM31.2651 16.5149C30.7722 16.5149 30.3718 16.927 30.3718 17.4324V19.2674C30.3718 20.785 29.1695 22.0199 27.692 22.0199C27.1979 22.0199 26.7987 21.6087 26.7987 21.1024C26.7987 20.5961 27.1979 20.1849 27.692 20.1849C28.1849 20.1849 28.5853 19.7728 28.5853 19.2674V17.4324C28.5853 16.7279 28.8445 16.0845 29.2696 15.5974C28.8445 15.1104 28.5853 14.4669 28.5853 13.7624V11.9274C28.5853 11.4219 28.1849 11.0099 27.692 11.0099C27.1979 11.0099 26.7987 10.5986 26.7987 10.0924C26.7987 9.58613 27.1979 9.17489 27.692 9.17489C29.1695 9.17489 30.3718 10.4098 30.3718 11.9274V13.7624C30.3718 14.2678 30.7722 14.6799 31.2651 14.6799C31.7592 14.6799 32.1584 15.0911 32.1584 15.5974C32.1584 16.1037 31.7592 16.5149 31.2651 16.5149Z" fill="white"/>
</svg>
