<svg width="50" height="51" viewBox="0 0 50 51" fill="none" xmlns="http://www.w3.org/2000/svg">
<path d="M13.3003 40.7728V38.6691C14.4259 37.635 15.0705 36.1584 15.0735 34.6071V32.7859C15.0735 30.8336 14.0596 29.0296 12.4134 28.0534C10.7676 27.0772 8.73949 27.0772 7.09329 28.0534C5.44748 29.0296 4.43323 30.8336 4.43323 32.7859V34.6075V34.6071C4.43657 36.1584 5.08118 37.635 6.20673 38.6691V40.7728C4.95385 41.2755 3.81353 42.0348 2.85496 43.0041C1.01952 44.879 -0.00887251 47.4305 5.76774e-05 50.0894C5.76774e-05 50.3311 0.0932043 50.5625 0.259461 50.7336C0.426085 50.9044 0.651344 51 0.886626 51H18.6207C18.8556 51 19.0812 50.9044 19.2475 50.7336C19.4137 50.5625 19.5072 50.3311 19.5072 50.0894C19.5158 47.4305 18.4879 44.879 16.6519 43.0041C15.6937 42.0348 14.5533 41.2755 13.3006 40.7728L13.3003 40.7728ZM11.5268 40.9824C11.5268 41.633 11.1888 42.2341 10.6403 42.5596C10.0914 42.8851 9.41562 42.8851 8.86679 42.5596C8.31793 42.2341 7.98023 41.633 7.98023 40.9824V39.7527C9.12614 40.1777 10.3809 40.1777 11.5268 39.7527V40.9824ZM9.75335 38.2502C8.81298 38.2502 7.91078 37.8664 7.24548 37.183C6.58047 36.4999 6.20673 35.5733 6.20673 34.6071C7.22762 34.3231 8.17318 33.8063 8.97329 33.0954C10.2881 33.9367 11.7636 34.4771 13.3003 34.6799C13.2818 35.6336 12.8999 36.5415 12.2368 37.2089C11.5736 37.8767 10.6819 38.2502 9.75335 38.2502Z" fill="white"/>
<path d="M46.799 15.6828C45.8405 14.7135 44.7 13.9542 43.4473 13.4515V11.3478C44.5728 10.3137 45.2174 8.83716 45.2208 7.28578V5.4646C45.2208 3.51228 44.2065 1.70828 42.5607 0.73212C40.9145 -0.24404 38.8864 -0.24404 37.2406 0.73212C35.5944 1.70828 34.5805 3.51228 34.5805 5.4646V7.28617V7.28579C34.5835 8.83707 35.2281 10.3137 36.3536 11.3478V13.4515C35.1008 13.9542 33.9604 14.7135 33.0023 15.6828C31.1664 17.5577 30.1384 20.1092 30.147 22.7681C30.147 23.0098 30.2405 23.2412 30.4067 23.4123C30.573 23.5831 30.7986 23.6787 31.0335 23.6787H48.7676C49.0028 23.6787 49.2281 23.5831 49.3947 23.4123C49.561 23.2412 49.6541 23.0098 49.6541 22.7681C49.663 20.1092 48.6348 17.5577 46.7992 15.6828L46.799 15.6828ZM41.6738 13.6611C41.6738 14.3117 41.3361 14.9128 40.7872 15.2383C40.2383 15.5638 39.5625 15.5638 39.0137 15.2383C38.4652 14.9128 38.1271 14.3117 38.1271 13.6611V12.4314C39.2731 12.8564 40.5278 12.8564 41.6738 12.4314V13.6611ZM36.3536 7.28617V7.28579C37.3749 7.00182 38.3205 6.48498 39.1202 5.77413C40.435 6.61535 41.9109 7.15582 43.4473 7.35858C43.4346 8.66026 42.747 9.85597 41.6434 10.4955C40.5393 11.1347 39.1874 11.121 38.0964 10.4589C37.0054 9.79682 36.341 8.58737 36.3536 7.28569V7.28617Z" fill="white"/>
<path d="M40.5298 25.7644C40.3632 25.5921 40.1368 25.4949 39.9005 25.4949C39.6641 25.4949 39.4373 25.5921 39.2707 25.7644L36.6106 28.4965C36.2629 28.8537 36.2629 29.4326 36.6106 29.7898C36.9584 30.1469 37.5221 30.1469 37.8698 29.7898L39.0135 28.6059V35.5182C39.0135 36.2428 38.7333 36.9377 38.2346 37.45C37.7358 37.9623 37.0589 38.2504 36.3534 38.2504H21.2804C20.7906 38.2504 20.3935 38.6579 20.3935 39.161C20.3935 39.6641 20.7906 40.0716 21.2804 40.0716H36.3534C37.5295 40.0716 38.6569 39.5921 39.4885 38.7379C40.3198 37.8841 40.787 36.7258 40.787 35.5183V28.6059L41.9307 29.7898C42.0974 29.9621 42.3241 30.0593 42.5605 30.0593C42.7969 30.0593 43.0233 29.9621 43.1899 29.7898C43.3576 29.6187 43.4523 29.3858 43.4523 29.143C43.4523 28.9002 43.3576 28.6677 43.1899 28.4965L40.5298 25.7644Z" fill="white"/>
<path d="M9.12406 25.2355C9.29068 25.4077 9.51705 25.5049 9.75345 25.5049C9.98984 25.5049 10.2166 25.4077 10.3832 25.2355L13.0433 22.5033C13.391 22.1461 13.391 21.5672 13.0433 21.21C12.6955 20.8529 12.1318 20.8529 11.7841 21.21L10.6404 22.3939V15.4816C10.6404 14.757 10.9206 14.0621 11.4193 13.5498C11.9181 13.0376 12.595 12.7494 13.3005 12.7494H28.3735C28.8633 12.7494 29.2604 12.3419 29.2604 11.8388C29.2604 11.3357 28.8633 10.9282 28.3735 10.9282H13.3005C12.1244 10.9282 10.997 11.4077 10.1654 12.2619C9.33412 13.1157 8.8669 14.274 8.8669 15.4816V22.3939L7.72317 21.21C7.37544 20.8529 6.81174 20.8529 6.46401 21.21C6.11628 21.5672 6.11628 22.1461 6.46401 22.5033L9.12406 25.2355Z" fill="white"/>
</svg>
