<svg width="49" height="46" viewBox="0 0 49 46" fill="none" xmlns="http://www.w3.org/2000/svg">
<path d="M48.369 7.36012V0.920122C48.369 0.412482 47.9687 0.00012207 47.4733 0.00012207H0.895722C0.401478 0.00012207 0 0.412482 0 0.920122V7.36012H48.369ZM15.2273 3.68012H17.0187C17.513 3.68012 17.9144 4.09248 17.9144 4.60012C17.9144 5.10776 17.513 5.52012 17.0187 5.52012H15.2273C14.733 5.52012 14.3316 5.10776 14.3316 4.60012C14.3316 4.09248 14.733 3.68012 15.2273 3.68012ZM9.85294 3.68012H11.6444C12.1386 3.68012 12.5401 4.09248 12.5401 4.60012C12.5401 5.10776 12.1386 5.52012 11.6444 5.52012H9.85294C9.3587 5.52012 8.95722 5.10776 8.95722 4.60012C8.95722 4.09248 9.3587 3.68012 9.85294 3.68012ZM4.47861 3.68012H6.27005C6.7643 3.68012 7.16578 4.09248 7.16578 4.60012C7.16578 5.10776 6.7643 5.52012 6.27005 5.52012H4.47861C3.98437 5.52012 3.58289 5.10776 3.58289 4.60012C3.58289 4.09248 3.98437 3.68012 4.47861 3.68012Z" fill="white"/>
<path d="M35.8473 14.7201C35.6082 14.7201 35.3822 14.8158 35.2139 14.9895L22.5458 27.9999C22.3775 28.1728 22.2843 28.4049 22.2843 28.6505C22.2843 28.8969 22.3775 29.1281 22.5458 29.301C22.8845 29.6477 23.4739 29.6489 23.8134 29.301L36.4805 16.2907C36.6488 16.1169 36.7428 15.8857 36.7428 15.6393C36.7428 15.3928 36.6496 15.1628 36.4805 14.9887C36.311 14.8158 36.0862 14.7201 35.8471 14.7201H35.8473Z" fill="white"/>
<path d="M17.5592 31.6649C16.8411 31.6649 16.1665 31.952 15.6587 32.4736C15.2316 32.9123 15.26 33.999 15.2868 35.0513C15.3164 36.1837 15.3496 37.4425 14.8137 38.4077C16.4008 38.0368 18.8365 37.0149 19.4579 36.3763C19.9649 35.8555 20.2444 35.1626 20.2444 34.425C20.2444 33.6873 19.9649 32.9945 19.4579 32.4736C18.9512 31.952 18.2766 31.6649 17.5592 31.6649H17.5592Z" fill="white"/>
<path d="M0 9.20007V45.0801C0 45.5889 0.401478 46.0001 0.895722 46.0001H47.4733C47.9687 46.0001 48.369 45.5889 48.369 45.0801V9.20007H0ZM20.7255 37.677C19.527 38.9079 15.4863 40.3893 13.8544 40.3893C12.9391 40.3893 12.5744 39.9606 12.4292 39.6028C12.0846 38.7473 12.8411 37.9707 13.1262 37.6782C13.5533 37.2383 13.5249 36.1519 13.4981 35.1005C13.4621 33.7271 13.4221 32.1705 14.3938 31.172C15.2396 30.3034 16.3644 29.8241 17.5612 29.8241C18.7569 29.8241 19.8821 30.3034 20.7275 31.172C21.5732 32.0407 22.0387 33.1952 22.0387 34.4241C22.0387 35.653 21.5712 36.8083 20.7255 37.677L20.7255 37.677ZM37.7483 17.5915L25.0812 30.6019C24.5734 31.1227 23.8988 31.4106 23.1814 31.4106C22.4632 31.4106 21.7887 31.1235 21.2808 30.6019C20.7738 30.0811 20.4943 29.3882 20.4943 28.6506C20.4943 27.9137 20.7738 27.2201 21.2808 26.6992L33.9489 13.6888C34.9646 12.6464 36.7344 12.6473 37.7485 13.6888C38.2555 14.2096 38.5358 14.9033 38.5358 15.6402C38.5358 16.377 38.2555 17.0699 37.7485 17.5915H37.7483Z" fill="white"/>
</svg>
