<svg width="28" height="52" viewBox="0 0 28 52" fill="none" xmlns="http://www.w3.org/2000/svg">
<path d="M16.7648 21.0456H22.3531V26.7853H16.7648V21.0456Z" fill="white"/>
<path d="M5.58829 9.56622H11.1766V15.306H5.58829V9.56622Z" fill="white"/>
<path d="M16.7648 9.56622H22.3531V15.306H16.7648V9.56622Z" fill="white"/>
<path d="M27.9414 5.73956H0V42.0912H27.9414V5.73956ZM13.0393 27.7419C13.0393 28.271 12.6218 28.6985 12.1079 28.6985H4.65689C4.14297 28.6985 3.72551 28.271 3.72551 27.7419V20.0889C3.72551 19.5611 4.14297 19.1323 4.65689 19.1323H12.1079C12.6218 19.1323 13.0393 19.5611 13.0393 20.0889V27.7419ZM13.0393 16.2624C13.0393 16.7903 12.6218 17.219 12.1079 17.219H4.65689C4.14297 17.219 3.72551 16.7903 3.72551 16.2624V8.60943C3.72551 8.08158 4.14297 7.65281 4.65689 7.65281H12.1079C12.6218 7.65281 13.0393 8.08158 13.0393 8.60943V16.2624ZM24.2158 27.7419C24.2158 28.271 23.7996 28.6985 23.2845 28.6985H15.8334C15.3183 28.6985 14.9021 28.271 14.9021 27.7419V20.0889C14.9021 19.5611 15.3183 19.1323 15.8334 19.1323H23.2845C23.7996 19.1323 24.2158 19.5611 24.2158 20.0889V27.7419ZM23.2845 17.219H15.8334C15.3183 17.219 14.9021 16.7903 14.9021 16.2624V8.60943C14.9021 8.08158 15.3183 7.65281 15.8334 7.65281H23.2845C23.7996 7.65281 24.2158 8.08158 24.2158 8.60943V16.2624C24.2158 16.7903 23.7996 17.219 23.2845 17.219Z" fill="white"/>
<path d="M27.9414 3.82637V0.9565C27.9414 0.428652 27.5251 -0.00012207 27.01 -0.00012207H0.931378C0.41746 -0.00012207 0 0.428652 0 0.9565V3.82637H27.9414Z" fill="white"/>
<path d="M0 44.0046V50.7009C0 51.2301 0.41746 51.6576 0.931378 51.6576H27.01C27.5251 51.6576 27.9414 51.2301 27.9414 50.7009V44.0046H0ZM15.8334 47.8311H12.1079C11.594 47.8311 11.1765 47.4036 11.1765 46.8744C11.1765 46.3453 11.594 45.9178 12.1079 45.9178H15.8334C16.3486 45.9178 16.7648 46.3453 16.7648 46.8744C16.7648 47.4036 16.3486 47.8311 15.8334 47.8311Z" fill="white"/>
<path d="M5.58829 21.0456H11.1766V26.7853H5.58829V21.0456Z" fill="white"/>
</svg>
