<svg width="52" height="56" viewBox="0 0 52 56" fill="none" xmlns="http://www.w3.org/2000/svg">
<path d="M15.162 20.7339C16.7804 20.7339 18.1431 19.3344 18.1431 17.6721C18.1431 17.2347 18.058 16.7973 17.8874 16.4473L24.2757 9.88582C24.7016 10.1484 25.2125 10.2358 25.7239 10.2358C26.32 10.2358 26.9164 10.061 27.4274 9.71102L33.0491 14.435C32.964 14.785 32.8789 15.135 32.8789 15.4851C32.8789 17.2347 34.2416 18.5469 35.8599 18.5469C37.5634 18.5469 38.8409 17.1473 38.8409 15.4851C38.8409 14.9603 38.6707 14.3477 38.415 13.9103L44.8034 6.03665C45.3147 6.12405 45.7406 6.21145 46.1664 6.21145C47.8699 6.21145 49.1475 4.81186 49.1475 3.0618C49.1475 1.4 47.7848 0 46.1664 0C44.463 0 43.1854 1.39959 43.1854 3.0618C43.1854 3.67401 43.3556 4.28662 43.6964 4.81145L37.308 12.6851C36.8822 12.5103 36.4563 12.3351 35.9454 12.3351C35.2639 12.3351 34.5827 12.5977 34.0714 13.0351L28.5348 8.39844C28.705 8.04844 28.7905 7.61103 28.7905 7.17361C28.7905 5.51141 27.4278 4.11181 25.8095 4.11181C24.106 4.11181 22.8285 5.51141 22.8285 7.17361C22.8285 7.69842 22.9986 8.22367 23.2543 8.66105L16.9511 15.0474C16.4402 14.6974 15.9288 14.5226 15.3328 14.5226C13.6293 14.5226 12.3518 15.9222 12.3518 17.5844C12.3514 19.247 13.4583 20.734 15.1622 20.734L15.162 20.7339Z" fill="white"/>
<path d="M7.06982 17.8468H0.851726C0.425863 17.8468 0 18.1968 0 18.7216V41.9932C0 42.4306 0.425863 42.868 0.851726 42.868H6.98439C7.41025 42.868 7.83612 42.4306 7.83612 41.9932V18.7216C7.9216 18.2838 7.49575 17.8464 7.06988 17.8464L7.06982 17.8468Z" fill="white"/>
<path d="M17.8876 24.2345H11.7549C11.2439 24.2345 10.9032 24.5845 10.9032 25.1093V41.9943C10.9032 42.4317 11.2439 42.8691 11.7549 42.8691H17.8876C18.3985 42.8691 18.7393 42.4317 18.7393 41.9943L18.7397 25.1093C18.7397 24.6719 18.3989 24.2345 17.8876 24.2345Z" fill="white"/>
<path d="M50.5958 13.9979H44.4631C43.9522 13.9979 43.6114 14.4353 43.6114 14.8727V32.0196C44.378 34.5566 44.378 37.2688 43.6114 39.7185V41.9929C43.6114 42.4303 43.9522 42.8678 44.4631 42.8678H50.5958C51.0216 42.8678 51.4475 42.4303 51.4475 41.9929V14.8724C51.4475 14.3476 51.0216 13.9976 50.5958 13.9976V13.9979Z" fill="white"/>
<path d="M33.4747 21.1721C32.9638 21.1721 32.623 21.5221 32.623 22.0469V23.097C35.604 23.3596 38.4148 24.6718 40.4594 26.8588V22.0469C40.4594 21.5221 40.1187 21.1721 39.6077 21.1721H33.4747Z" fill="white"/>
<path d="M22.657 16.7973C22.146 16.7973 21.8052 17.1473 21.8052 17.6721V27.9079C22.3162 27.2957 22.8276 26.6831 23.5087 26.071C25.2972 24.4962 27.4269 23.534 29.7265 23.0965V17.5851C29.7265 17.0603 29.3006 16.7102 28.8748 16.7102L22.657 16.7098L22.657 16.7973Z" fill="white"/>
<path d="M39.778 28.6083C35.8598 23.9716 29.0456 23.4465 24.5312 27.4709C22.3164 29.3958 21.0388 32.1076 20.7835 35.082C20.5279 38.0564 21.4651 40.856 23.3387 43.1308C27.2569 47.7675 34.0711 48.2926 38.5855 44.2682C43.1849 40.2442 43.6962 33.2449 39.778 28.6081V28.6083ZM37.5633 42.9558C33.7305 46.3681 28.0238 45.8429 24.7016 41.9936C21.465 38.0565 21.8908 32.1951 25.724 28.7834C29.5572 25.459 35.2639 25.8089 38.5856 29.7456C41.8223 33.6827 41.3965 39.5441 37.5633 42.9558Z" fill="white"/>
<path d="M41.8219 43.2188C41.2259 44.0936 40.5443 44.881 39.7777 45.581C39.0112 46.281 38.1594 46.8932 37.2226 47.3306C39.1817 50.5677 41.4816 53.8047 42.0776 54.5921C43.5258 56.3418 46.081 56.4291 47.6993 55.0295C49.3176 53.5421 49.5733 51.0051 48.1252 49.2554C47.4436 48.468 44.7179 45.7559 41.8219 43.2188L41.8219 43.2188Z" fill="white"/>
</svg>
