<svg width="38" height="55" viewBox="0 0 38 55" fill="none" xmlns="http://www.w3.org/2000/svg">
<path d="M3.05176e-05 9.17224V45.8294H37.7199V9.17224H3.05176e-05ZM5.38979 11.2009C7.05477 11.2009 8.46872 12.5094 8.86959 14.2621H15.3818C15.7831 12.5094 17.1951 11.2009 18.8601 11.2009C20.5251 11.2009 21.939 12.5094 22.3399 14.2621H28.8521C29.2534 12.5094 30.6654 11.2009 32.3304 11.2009C34.3037 11.2009 35.9241 13.0391 35.9241 15.2769C35.9241 17.5148 34.3037 19.3506 32.3304 19.3506C30.6679 19.3506 29.2575 18.0481 28.8542 16.2989H25.3443C28.0283 18.133 30.0228 21.0545 30.9148 24.4704C32.7113 24.6877 34.1281 26.4222 34.1281 28.514C34.1281 30.7519 32.5076 32.59 30.5343 32.59C28.5611 32.59 26.9406 30.7519 26.9406 28.514C26.9406 26.8459 27.8415 25.406 29.1171 24.7804C28.0704 21.0855 25.5126 18.1016 22.1591 16.8818C21.6058 18.329 20.3313 19.3506 18.86 19.3506C17.3895 19.3506 16.1163 18.3299 15.5626 16.8842C12.2098 18.1031 9.6461 21.0833 8.59773 24.7768C9.87661 25.4006 10.7795 26.8432 10.7795 28.514C10.7795 30.7519 9.16066 32.59 7.18737 32.59C5.21409 32.59 3.59365 30.7519 3.59365 28.514C3.59365 26.4217 5.00965 24.6867 6.80692 24.4704C7.69933 21.0541 9.69464 18.1326 12.3791 16.2989H8.86795C8.46424 18.0479 7.05231 19.3506 5.38969 19.3506C3.41641 19.3506 1.79761 17.5148 1.79761 15.2769C1.79761 13.0391 3.41641 11.2009 5.38969 11.2009H5.38979ZM5.38979 13.2378C4.38714 13.2378 3.59375 14.1398 3.59375 15.2769C3.59375 16.4135 4.38714 17.3138 5.38979 17.3138C6.39244 17.3138 7.18747 16.4135 7.18747 15.2769C7.18747 14.1398 6.39249 13.2378 5.38979 13.2378ZM18.8601 13.2378C17.8574 13.2378 17.0641 14.1398 17.0641 15.2769C17.0641 16.4135 17.8574 17.3138 18.8601 17.3138C19.8627 17.3138 20.6578 16.4135 20.6578 15.2769C20.6578 14.1398 19.8628 13.2378 18.8601 13.2378ZM32.3304 13.2378C31.3277 13.2378 30.5343 14.1398 30.5343 15.2769C30.5343 16.4135 31.3277 17.3138 32.3304 17.3138C33.333 17.3138 34.1281 16.4135 34.1281 15.2769C34.1281 14.1398 33.3331 13.2378 32.3304 13.2378ZM18.8601 21.3874C19.1167 21.3888 19.3608 21.5147 19.53 21.7334L26.7162 30.8992C26.9219 31.1638 26.992 31.5302 26.9018 31.8676L24.2098 42.0481C24.0964 42.48 23.746 42.776 23.3487 42.776H14.3737C13.9756 42.7769 13.6244 42.481 13.5106 42.0481L10.8133 31.8676C10.7247 31.5289 10.7981 31.162 11.0062 30.8992L18.192 21.7334C18.3611 21.5152 18.6041 21.3893 18.8603 21.3874H18.8601ZM19.7545 25.0851V30.5532H17.9585V25.095L12.6826 31.8221L15.0347 40.7391H22.6783L25.0393 31.8221L19.7545 25.0851ZM7.18735 26.4773C6.1851 26.4773 5.38967 27.3771 5.38967 28.5141C5.38967 29.6512 6.18506 30.5533 7.18735 30.5533C8.19 30.5533 8.98339 29.6513 8.98339 28.5141C8.98339 27.3771 8.19 26.4773 7.18735 26.4773ZM30.5338 26.4773C29.5312 26.4773 28.7378 27.3771 28.7378 28.5141C28.7378 29.6512 29.5312 30.5533 30.5338 30.5533C31.5365 30.5533 32.3299 29.6513 32.3299 28.5141C32.3299 27.3771 31.5365 26.4773 30.5338 26.4773Z" fill="white"/>
<path d="M3.05176e-05 47.8652V49.902C3.05176e-05 49.902 0.0104546 51.2186 0.57693 52.5036C1.1434 53.7884 2.23349 55 4.48809 55H33.2247C35.487 55 36.5699 53.7884 37.1363 52.5036C37.7024 51.2187 37.72 49.902 37.72 49.902V47.8652H3.05176e-05ZM15.2684 49.902H22.4542V51.9388H15.2684V49.902Z" fill="white"/>
<path d="M4.48806 0C2.231 0 1.14332 1.21163 0.576898 2.49599C0.0104267 3.78083 0 5.09569 0 5.09569V7.13486H37.7199V5.09569C37.7199 2.52055 36.6515 1.30253 35.519 0.660167C34.386 0.0177492 33.2247 1.15439e-05 33.2247 1.15439e-05L4.48806 0ZM13.4703 3.05886H17.064V5.09569H13.4703V3.05886ZM18.8601 3.05886H26.0459V5.09569H18.8601V3.05886Z" fill="white"/>
</svg>
